<svg width="269" height="222" viewBox="0 0 269 222" fill="none" xmlns="http://www.w3.org/2000/svg">
<path d="M207.748 48.5585L210.218 48.7885L212.688 49.1085L215.148 49.5385L217.587 50.0485L220.027 50.6685L222.447 51.3884L224.847 52.1985L227.227 53.1184L229.577 54.1384L231.907 55.2584L234.197 56.4684L236.457 57.7983L238.687 59.2183L240.857 60.7383L242.937 62.3183L244.947 63.9783L246.867 65.6982L248.707 67.4882L250.457 69.3382L252.127 71.2381L253.717 73.1981L255.217 75.2181L256.627 77.278L257.957 79.388L259.197 81.5479L260.347 83.7479L261.417 85.9779L262.397 88.2478L263.277 90.5478L264.077 92.8878L264.787 95.2477L265.407 97.6277L265.927 100.028L266.357 102.458L266.697 104.888L266.947 107.338L267.097 109.807L267.157 112.267L267.127 114.737L266.997 117.217L266.767 119.687L266.437 122.147L266.017 124.607L265.497 127.057L264.887 129.487L264.167 131.907L263.347 134.307L262.437 136.687L261.417 139.037L260.297 141.367L259.077 143.667L257.757 145.927L256.337 148.147L254.817 150.317L253.237 152.407L251.577 154.407L249.857 156.327L248.067 158.167L246.217 159.917L244.307 161.597L242.347 163.177L240.337 164.677L238.267 166.097L236.157 167.417L234.007 168.667L232.977 169.197L232.987 169.207L232.517 169.447L231.807 169.817L230.377 170.496L131.739 219.106L139.039 108.938L139.099 107.808L139.149 107.238L139.169 106.938H139.179L139.319 105.338L139.649 102.868L140.069 100.408L140.589 97.9577L141.209 95.5277L141.919 93.1078L142.739 90.7078L143.659 88.3278L144.669 85.9779L145.789 83.6479L147.009 81.3579L148.329 79.088L149.759 76.868L151.269 74.6981L152.859 72.6081L154.509 70.6081L156.238 68.6882L158.018 66.8482L159.868 65.0982L161.778 63.4283L163.738 61.8383L165.748 60.3383L167.818 58.9283L169.928 57.5984L172.078 56.3584L174.278 55.1984L176.518 54.1384L178.788 53.1584L181.088 52.2684L183.418 51.4685L185.778 50.7685L188.158 50.1485L190.568 49.6285L192.988 49.1885L195.428 48.8485L197.878 48.6085L200.338 48.4485L202.808 48.3885L205.278 48.4285L207.748 48.5585Z" fill="#FB66B2"/>
<path d="M207.748 48.5585L210.218 48.7885L212.688 49.1085L215.148 49.5385L217.587 50.0485L220.027 50.6685L222.447 51.3884L224.847 52.1985L227.227 53.1184L229.577 54.1384L231.907 55.2584L234.197 56.4684L236.457 57.7983L238.687 59.2183L240.857 60.7383L242.937 62.3183L244.947 63.9783L246.867 65.6982L248.707 67.4882L250.457 69.3382L252.127 71.2381L253.717 73.1981L255.217 75.2181L256.627 77.278L257.957 79.388L259.197 81.5479L260.347 83.7479L261.417 85.9779L262.397 88.2478L263.277 90.5478L264.077 92.8878L264.787 95.2477L265.407 97.6277L265.927 100.028L266.357 102.458L266.697 104.888L266.947 107.338L267.097 109.807L267.157 112.267L267.127 114.737L266.997 117.217L266.767 119.687L266.437 122.147L266.017 124.607L265.497 127.057L264.887 129.487L264.167 131.907L263.347 134.307L262.437 136.687L261.417 139.037L260.297 141.367L259.077 143.667L257.757 145.927L256.337 148.147L254.817 150.317L253.237 152.407L251.577 154.407L249.857 156.327L248.067 158.167L246.217 159.917L244.307 161.597L242.347 163.177L240.337 164.677L238.267 166.097L236.157 167.417L234.007 168.667L232.977 169.197L232.987 169.207L232.517 169.447L231.807 169.817L230.377 170.496L131.739 219.106L139.039 108.938L139.099 107.808L139.149 107.238L139.169 106.938H139.179L139.319 105.338L139.649 102.868L140.069 100.408L140.589 97.9577L141.209 95.5277L141.919 93.1078L142.739 90.7078L143.659 88.3278L144.669 85.9779L145.789 83.6479L147.009 81.3579L148.329 79.088L149.759 76.868L151.269 74.6981L152.859 72.6081L154.509 70.6081L156.238 68.6882L158.018 66.8482L159.868 65.0982L161.778 63.4282L163.738 61.8383L165.748 60.3383L167.818 58.9283L169.928 57.5984L172.078 56.3584L174.278 55.1984L176.518 54.1384L178.788 53.1584L181.088 52.2684L183.418 51.4685L185.778 50.7685L188.158 50.1485L190.568 49.6285L192.988 49.1885L195.428 48.8485L197.878 48.6085L200.338 48.4485L202.808 48.3885L205.278 48.4285L207.748 48.5585Z" stroke="#415968" stroke-width="2.99995"/>
<path d="M176.288 151.657C197.738 166.007 226.747 160.247 241.097 138.797C255.437 117.357 249.687 88.3378 228.237 73.9981C206.788 59.6483 177.778 65.4082 163.428 86.8479C149.079 108.298 154.838 137.317 176.288 151.657Z" fill="white"/>
<path d="M176.288 151.657C197.738 166.007 226.747 160.247 241.097 138.797C255.437 117.357 249.687 88.3378 228.237 73.9981C206.788 59.6483 177.778 65.4082 163.428 86.8479C149.079 108.298 154.838 137.317 176.288 151.657Z" stroke="#415968" stroke-width="2.99995"/>
<path d="M227.238 100.698L204.068 125.478L194.958 135.228L178.078 117.168L187.188 107.428L194.958 115.728L218.118 90.9578L227.238 100.698Z" fill="#FB66B2"/>
<path d="M227.238 100.698L204.068 125.478L194.958 135.228L178.078 117.168L187.188 107.428L194.958 115.728L218.118 90.9578L227.238 100.698Z" stroke="#415968" stroke-width="2.99995"/>
<path d="M71.0399 43.6586L73.4998 43.8986L75.9398 44.2286L78.3698 44.6485L80.7797 45.1686L83.1597 45.7785L85.5196 46.4785L87.8496 47.2685L90.1496 48.1485L92.4195 49.1085L94.6495 50.1685L96.8495 51.3084L98.9994 52.5284L101.099 53.8384L103.159 55.2384L105.169 56.7183L107.129 58.2783L109.029 59.9183L110.869 61.6483L112.649 63.4482L114.359 65.3382L116.009 67.2982L117.589 69.3381L119.089 71.4581L120.519 73.6581L121.869 75.928L123.129 78.258L124.279 80.6079L125.329 82.9879L126.279 85.3879L127.119 87.8078L127.859 90.2478L128.499 92.6978L129.039 95.1677L129.469 97.6377L129.809 100.118L130.049 102.598L130.199 105.088L130.229 106.698H130.239L130.229 106.998L130.239 107.568L130.219 108.698L129.439 219.106L34.6205 163.427L33.2505 162.637L32.5705 162.217L32.1105 161.947L32.1205 161.937L31.1405 161.327L29.0805 159.927L27.0706 158.447L25.1206 156.887L23.2207 155.247L21.3807 153.517L19.6007 151.717L17.8808 149.827L16.2308 147.867L14.6608 145.827L13.1508 143.707L11.7208 141.507L10.3709 139.237L9.11088 136.917L7.9609 134.557L6.91093 132.177L5.96093 129.777L5.12095 127.357L4.38097 124.917L3.74097 122.467L3.21098 120.007L2.77098 117.527L2.43099 115.047L2.19101 112.567L2.05099 110.087L2.00101 107.607L2.05099 105.128L2.19101 102.658L2.43099 100.208L2.761 97.7577L3.19099 95.3377L3.71097 92.9277L4.32098 90.5478L5.02095 88.1878L5.80093 85.8579L6.68092 83.5479L7.65091 81.288L8.70091 79.048L9.84088 76.858L11.0709 74.708L12.3808 72.5981L13.7708 70.5481L15.2508 68.5382L16.8108 66.5782L18.4607 64.6782L20.1807 62.8382L21.9907 61.0583L23.8706 59.3483L25.8406 57.6983L27.8806 56.1184L30.0005 54.6184L32.1905 53.1884L34.4705 51.8284L36.7904 50.5784L39.1404 49.4185L41.5203 48.3685L43.9203 47.4285L46.3503 46.5885L48.7802 45.8485L51.2402 45.2085L53.7002 44.6686L56.1801 44.2286L58.6601 43.8885L61.1401 43.6486L63.62 43.5086L66.1 43.4586L68.5799 43.5086L71.0399 43.6586Z" fill="#F98C6A"/>
<path d="M71.0399 43.6586L73.4998 43.8986L75.9398 44.2286L78.3698 44.6485L80.7797 45.1686L83.1597 45.7785L85.5196 46.4785L87.8496 47.2685L90.1496 48.1485L92.4195 49.1085L94.6495 50.1685L96.8495 51.3084L98.9994 52.5284L101.099 53.8384L103.159 55.2384L105.169 56.7183L107.129 58.2783L109.029 59.9183L110.869 61.6483L112.649 63.4483L114.359 65.3382L116.009 67.2982L117.589 69.3381L119.089 71.4581L120.519 73.6581L121.869 75.928L123.129 78.258L124.279 80.6079L125.329 82.9879L126.279 85.3879L127.119 87.8078L127.859 90.2478L128.499 92.6978L129.039 95.1677L129.469 97.6377L129.809 100.118L130.049 102.598L130.199 105.088L130.229 106.698H130.239L130.229 106.998L130.239 107.568L130.219 108.698L129.439 219.106L34.6205 163.427L33.2505 162.637L32.5705 162.217L32.1105 161.947L32.1205 161.937L31.1405 161.327L29.0805 159.927L27.0706 158.447L25.1206 156.887L23.2207 155.247L21.3807 153.517L19.6007 151.717L17.8808 149.827L16.2308 147.867L14.6608 145.827L13.1508 143.707L11.7208 141.507L10.3709 139.237L9.11088 136.917L7.9609 134.557L6.91093 132.177L5.96093 129.777L5.12095 127.357L4.38097 124.917L3.74097 122.467L3.21098 120.007L2.77098 117.527L2.43099 115.047L2.19101 112.567L2.05099 110.087L2.00101 107.607L2.05099 105.128L2.19101 102.658L2.43099 100.208L2.761 97.7577L3.19099 95.3377L3.71097 92.9277L4.32098 90.5478L5.02095 88.1878L5.80093 85.8579L6.68092 83.5479L7.65091 81.288L8.70091 79.048L9.84087 76.858L11.0709 74.708L12.3808 72.5981L13.7708 70.5481L15.2508 68.5382L16.8108 66.5782L18.4607 64.6782L20.1807 62.8382L21.9907 61.0583L23.8706 59.3483L25.8406 57.6983L27.8806 56.1184L30.0005 54.6184L32.1905 53.1884L34.4705 51.8284L36.7904 50.5784L39.1404 49.4185L41.5203 48.3685L43.9203 47.4285L46.3503 46.5885L48.7802 45.8485L51.2402 45.2085L53.7002 44.6686L56.1801 44.2286L58.6601 43.8885L61.1401 43.6486L63.62 43.5086L66.1 43.4586L68.5799 43.5086L71.0399 43.6586Z" stroke="#415968" stroke-width="2.99995"/>
<path d="M89.9496 148.587C67.51 161.327 38.9904 153.467 26.2506 131.027C13.5109 108.588 21.3707 80.068 43.8104 67.3282C66.25 54.5884 94.7695 62.4483 107.509 84.8879C120.249 107.328 112.379 135.847 89.9496 148.587Z" fill="white"/>
<path d="M89.9496 148.587C67.51 161.327 38.9904 153.467 26.2506 131.027C13.5109 108.588 21.3707 80.068 43.8104 67.3282C66.25 54.5884 94.7695 62.4483 107.509 84.8879C120.249 107.328 112.379 135.847 89.9496 148.587Z" stroke="#415968" stroke-width="2.99995"/>
<path d="M94.0203 94.3079L70.4203 118.668L61.1403 128.248L54.7103 121.138C53.5203 119.818 52.0803 118.218 50.3903 116.348C48.7003 114.478 46.7603 112.328 44.5803 109.908L53.8603 100.328L61.4803 108.758L85.0703 84.3979L94.0203 94.3079Z" fill="#F98C6A"/>
<path d="M94.0203 94.3079L70.4203 118.668L61.1403 128.248L54.7103 121.138C53.5203 119.818 52.0803 118.218 50.3903 116.348C48.7003 114.478 46.7603 112.328 44.5803 109.908L53.8603 100.328L61.4803 108.758L85.0703 84.3979L94.0203 94.3079Z" stroke="#415968" stroke-width="2.99995"/>
<path d="M136.159 2.23924L139.069 2.53922L141.939 2.94922L144.779 3.46921L147.569 4.09921L150.329 4.83919L153.039 5.67917L155.699 6.61916L158.308 7.66914L160.868 8.80912L163.378 10.0491L165.828 11.3791L168.228 12.8091L170.558 14.319L172.828 15.909L175.038 17.599L177.168 19.359L179.238 21.1989L181.228 23.1189L183.148 25.1189L184.998 27.1788L186.758 29.3188L188.438 31.5188L190.038 33.7887L191.548 36.1287L192.968 38.5186L194.298 40.9686L195.538 43.4786L196.688 46.0385L197.728 48.6585L198.678 51.3184L199.518 54.0284L200.258 56.7783L200.888 59.5783L201.408 62.4183L201.818 65.2882L202.108 68.1982L202.288 71.1381L202.348 74.108L202.288 77.078L202.108 80.028L201.818 82.9279L201.408 85.8079L200.888 88.6378L200.258 91.4378L199.518 94.1877L198.678 96.8977L197.728 99.5676L196.688 102.178L195.538 104.738L194.298 107.248L193.678 108.397H193.698L193.398 108.907L192.968 109.697L192.058 111.237L130.239 218.356L68.1699 110.797L67.5099 109.697L67.2099 109.137L67.04 108.847H67.0499L66.18 107.248L64.94 104.738L63.8 102.178L62.75 99.5676L61.81 96.8977L60.97 94.1877L60.2301 91.4378L59.6001 88.6378L59.0801 85.8079L58.6701 82.9279L58.3701 80.028L58.1901 77.078L58.1301 74.108L58.1901 71.1381L58.3701 68.1982L58.6701 65.2882L59.0801 62.4183L59.6001 59.5783L60.2301 56.7783L60.97 54.0284L61.81 51.3184L62.75 48.6585L63.8 46.0385L64.94 43.4786L66.18 40.9686L67.5099 38.5186L68.9399 36.1287L70.4499 33.7887L72.0499 31.5188L73.7298 29.3188L75.4898 27.1788L77.3298 25.1189L79.2497 23.1189L81.2497 21.1989L83.3197 19.359L85.4497 17.599L87.6596 15.909L89.9296 14.319L92.2595 12.8091L94.6495 11.3791L97.0995 10.0491L99.6094 8.80912L102.179 7.66914L104.789 6.61916L107.449 5.67917L110.159 4.83919L112.909 4.09921L115.709 3.46921L118.549 2.94922L121.419 2.53922L124.329 2.23924L127.269 2.05923L130.239 1.99924L133.219 2.05923L136.159 2.23924Z" fill="#5F7EF9"/>
<path d="M136.159 2.23924L139.069 2.53922L141.939 2.94922L144.779 3.46921L147.569 4.09921L150.329 4.83919L153.039 5.67917L155.699 6.61916L158.308 7.66914L160.868 8.80912L163.378 10.0491L165.828 11.3791L168.228 12.8091L170.558 14.319L172.828 15.909L175.038 17.599L177.168 19.359L179.238 21.1989L181.228 23.1189L183.148 25.1189L184.998 27.1788L186.758 29.3188L188.438 31.5188L190.038 33.7887L191.548 36.1287L192.968 38.5186L194.298 40.9686L195.538 43.4786L196.688 46.0385L197.728 48.6585L198.678 51.3184L199.518 54.0284L200.258 56.7783L200.888 59.5783L201.408 62.4183L201.818 65.2882L202.108 68.1982L202.288 71.1381L202.348 74.108L202.288 77.078L202.108 80.028L201.818 82.9279L201.408 85.8079L200.888 88.6378L200.258 91.4378L199.518 94.1877L198.678 96.8977L197.728 99.5676L196.688 102.178L195.538 104.738L194.298 107.248L193.678 108.397H193.698L193.398 108.907L192.968 109.697L192.058 111.237L130.239 218.356L68.1699 110.797L67.5099 109.697L67.2099 109.137L67.04 108.847H67.0499L66.18 107.248L64.94 104.738L63.8 102.178L62.75 99.5676L61.81 96.8977L60.97 94.1877L60.2301 91.4378L59.6001 88.6378L59.0801 85.8079L58.6701 82.9279L58.3701 80.028L58.1901 77.078L58.1301 74.108L58.1901 71.1381L58.3701 68.1982L58.6701 65.2882L59.0801 62.4183L59.6001 59.5783L60.2301 56.7783L60.97 54.0284L61.81 51.3184L62.75 48.6585L63.8 46.0385L64.94 43.4786L66.18 40.9686L67.5099 38.5186L68.9399 36.1287L70.4499 33.7887L72.0499 31.5188L73.7298 29.3188L75.4898 27.1788L77.3298 25.1189L79.2497 23.1189L81.2497 21.1989L83.3197 19.359L85.4497 17.599L87.6596 15.909L89.9296 14.319L92.2595 12.8091L94.6495 11.3791L97.0995 10.0491L99.6094 8.80912L102.179 7.66914L104.789 6.61916L107.449 5.67917L110.159 4.83919L112.909 4.09921L115.709 3.46921L118.549 2.94922L121.419 2.53922L124.329 2.23924L127.269 2.05923L130.239 1.99924L133.219 2.05923L136.159 2.23924Z" stroke="#415968" stroke-width="2.99995"/>
<path d="M130.239 127.447C159.268 127.447 182.788 103.918 182.788 74.898C182.788 45.8785 159.268 22.3489 130.239 22.3489C101.219 22.3489 77.6898 45.8785 77.6898 74.898C77.6898 103.918 101.219 127.447 130.239 127.447Z" fill="white"/>
<path d="M130.239 127.447C159.268 127.447 182.788 103.918 182.788 74.898C182.788 45.8785 159.268 22.3489 130.239 22.3489C101.219 22.3489 77.6898 45.8785 77.6898 74.898C77.6898 103.918 101.219 127.447 130.239 127.447Z" stroke="#415968" stroke-width="2.99995"/>
<path d="M157.889 60.9685L131.829 88.8285H131.839L121.579 99.7885L102.599 79.4885L112.849 68.5285L121.579 77.8685L147.639 50.0085L157.889 60.9685Z" fill="#5F7EF9"/>
<path d="M157.889 60.9685L131.829 88.8285H131.839L121.579 99.7885L102.599 79.4885L112.849 68.5285L121.579 77.8685L147.639 50.0085L157.889 60.9685Z" stroke="#415968" stroke-width="2.99995"/>
</svg>
